<?xml version="1.0" encoding="UTF-8" standalone="no"?>
<svg
   id="visual"
   viewBox="0 0 512 512"
   width="512"
   height="512"
   version="1.1"
   sodipodi:docname="todo.svg"
   inkscape:version="1.4.2 (ebf0e940d0, 2025-05-08)"
   xmlns:inkscape="http://www.inkscape.org/namespaces/inkscape"
   xmlns:sodipodi="http://sodipodi.sourceforge.net/DTD/sodipodi-0.dtd"
   xmlns:xlink="http://www.w3.org/1999/xlink"
   xmlns="http://www.w3.org/2000/svg"
   xmlns:svg="http://www.w3.org/2000/svg">
  <defs
     id="defs1">
    <linearGradient
       id="linearGradient4"
       inkscape:collect="always">
      <stop
         style="stop-color:#5a3ca9;stop-opacity:1;"
         offset="0"
         id="stop4" />
      <stop
         style="stop-color:#5a3ca9;stop-opacity:0;"
         offset="1"
         id="stop5" />
    </linearGradient>
    <linearGradient
       inkscape:collect="always"
       xlink:href="#linearGradient4"
       id="linearGradient5"
       x1="32.887033"
       y1="248.23395"
       x2="246.48078"
       y2="248.23395"
       gradientUnits="userSpaceOnUse"
       gradientTransform="translate(0,-13.116994)" />
  </defs>
  <sodipodi:namedview
     id="namedview1"
     pagecolor="#ffffff"
     bordercolor="#000000"
     borderopacity="0.25"
     inkscape:showpageshadow="2"
     inkscape:pageopacity="0.0"
     inkscape:pagecheckerboard="0"
     inkscape:deskcolor="#d1d1d1"
     inkscape:zoom="2.2871094"
     inkscape:cx="255.34415"
     inkscape:cy="248.56703"
     inkscape:window-width="2560"
     inkscape:window-height="1380"
     inkscape:window-x="0"
     inkscape:window-y="0"
     inkscape:window-maximized="1"
     inkscape:current-layer="visual" />
  <rect
     x="0"
     y="0"
     width="512"
     height="512"
     fill="#FCAF3C"
     id="rect1" />
  <path
     d="m 0,395.85987 12.2,6.94899 c 12.1,6.94899 36.5,20.84698 60.8,28.32541 24.3,7.54462 48.7,8.60351 73,5.22829 24.3,-3.4414 48.7,-11.38311 73.2,-19.12627 24.5,-7.67698 49.1,-15.2216 73.6,-12.57436 24.5,2.64723 48.9,15.48632 73.2,17.33938 24.3,1.85307 48.7,-7.14753 73,-13.76562 24.3,-6.61808 48.7,-10.85366 60.8,-12.90526 L 512,393.21264 V 513 h -12.2 c -12.1,0 -36.5,0 -60.8,0 -24.3,0 -48.7,0 -73,0 -24.3,0 -48.7,0 -73.2,0 -24.5,0 -49.1,0 -73.6,0 -24.5,0 -48.9,0 -73.2,0 -24.3,0 -48.7,0 -73,0 -24.3,0 -48.7,0 -60.8,0 H 0 Z"
     fill="#ff6f61"
     stroke-linecap="round"
     stroke-linejoin="miter"
     id="path1"
     style="stroke-width:0.813516" />
  <text
     xml:space="preserve"
     style="font-style:normal;font-variant:normal;font-weight:normal;font-stretch:normal;font-size:160px;font-family:'Adwaita Sans';-inkscape-font-specification:'Adwaita Sans';text-align:start;letter-spacing:20px;word-spacing:1.31px;writing-mode:lr-tb;direction:ltr;text-anchor:start;fill:#5a3ca9;stroke:#4a4a4a;stroke-width:1;stroke-dasharray:none;stroke-opacity:1;fill-opacity:1"
     x="31.480783"
     y="192.38258"
     id="text1"><tspan
       id="tspan1"
       x="31.480783"
       y="192.38258"
       style="letter-spacing:20px;word-spacing:1.31px;fill:#5a3ca9;fill-opacity:1;stroke:#4a4a4a;stroke-width:1;stroke-dasharray:none;stroke-opacity:0.55464"
       sodipodi:role="line">To</tspan><tspan
       x="31.480783"
       y="392.38257"
       id="tspan2"
       style="letter-spacing:20px;word-spacing:1.31px;fill:#5a3ca9;fill-opacity:1;stroke:#4a4a4a;stroke-width:1;stroke-dasharray:none;stroke-opacity:0.55464"
       sodipodi:role="line">Do</tspan></text>
  <rect
     style="fill:#cd186a;fill-opacity:1;stroke:#4a4a4a;stroke-opacity:0"
     id="rect3"
     width="66.896698"
     height="24.485023"
     x="388.78003"
     y="19.87735"
     ry="9.6191292"
     transform="rotate(36.777245)"
     inkscape:transform-center-x="-4.3723313"
     inkscape:transform-center-y="-4.8095645" />
  <rect
     style="fill:#cd186a;fill-opacity:1;stroke:#835959;stroke-opacity:0"
     id="rect4"
     width="26.671221"
     height="250.97182"
     x="437.13129"
     y="-179.10893"
     ry="9.6191292"
     transform="rotate(33.168303)" />
</svg>
